<?xml version="1.0" encoding="UTF-8" standalone="no"?>
<!DOCTYPE svg PUBLIC "-//W3C//DTD SVG 1.1//EN" "http://www.w3.org/Graphics/SVG/1.1/DTD/svg11.dtd">
<svg width="100%" height="100%" viewBox="0 0 881 130" version="1.1" xmlns="http://www.w3.org/2000/svg" xmlns:xlink="http://www.w3.org/1999/xlink" xml:space="preserve" xmlns:serif="http://www.serif.com/" style="fill-rule:evenodd;clip-rule:evenodd;stroke-linejoin:round;stroke-miterlimit:2;">
    <g transform="matrix(1,0,0,1,-634.728,-382.568)">
        <path d="M702.68,382.568L718.721,431.938L770.632,431.938L728.635,462.45L744.677,511.82L702.68,481.308L660.683,511.82L676.724,462.45L634.728,431.938L686.639,431.938L702.68,382.568Z" style="fill:rgb(255,216,0);"/>
    </g>
    <g transform="matrix(1,0,0,1,-447.914,-382.568)">
        <path d="M702.68,382.568L718.721,431.938L770.632,431.938L728.635,462.45L744.677,511.82L702.68,481.308L660.683,511.82L676.724,462.45L634.728,431.938L686.639,431.938L702.68,382.568Z" style="fill:rgb(255,216,0);"/>
    </g>
    <g transform="matrix(1,0,0,1,-261.961,-382.568)">
        <path d="M702.68,382.568L718.721,431.938L770.632,431.938L728.635,462.45L744.677,511.82L702.68,481.308L660.683,511.82L676.724,462.45L634.728,431.938L686.639,431.938L702.68,382.568Z" style="fill:rgb(255,216,0);"/>
    </g>
    <g transform="matrix(1,0,0,1,-76.0238,-382.568)">
        <path d="M702.68,382.568L718.721,431.938L770.632,431.938L728.635,462.45L744.677,511.82L702.68,481.308L660.683,511.82L676.724,462.45L634.728,431.938L686.639,431.938L702.68,382.568Z" style="fill:rgb(255,216,0);"/>
    </g>
    <g transform="matrix(1,0,0,1,109.853,-382.568)">
        <path d="M702.68,382.568L718.721,431.938L770.632,431.938L728.635,462.45L744.677,511.82L702.68,481.308L660.683,511.82L676.724,462.45L634.728,431.938L686.639,431.938L702.68,382.568Z" style="fill:rgb(255,216,0);"/>
    </g>
</svg>
